# xmcd
#
# Track frame offsets: 
#        150
#        23419
#        40527
#        57717
#        75861
#        93736
#        111211
#        129642
#        145907
#        163648
#        180740
#        198427
#        215390
#        233515
#        251122
#        267963
#        286730
#        303604
#        332329
#
# Disc length: 4795 seconds
#
# Revision: 1
# Processed by: cddbd v1.5.2PL0 Copyright (c) Steve Scherf et al.
# Submitted via: ExactAudioCopy v0.95a5
#
DISCID=0412b913
DTITLE=Various Artist - Super Eurobeat 156
DYEAR=2005
DGENRE=Eurobeat
TTITLE0=Dave Rodgers - Wild Reputation 2005
TTITLE1=Lilibeth - Shine Forever
TTITLE2=Jackson'O - Shock
TTITLE3=Vicky Vale - Maximum Love
TTITLE4=Terence Holler - Dance Into Your Fire
TTITLE5=Kiki and Fancy - Big In The Night
TTITLE6=Karen - I Know What You Like
TTITLE7=David "Off" - Imagination
TTITLE8=Ace Warrior - Fire On The Beat
TTITLE9=Rose - It's Fine
TTITLE10=Donna - In The Name Of Loving
TTITLE11=Luna - Your Love Is Magic
TTITLE12=The Girls - Hold Back The Fire
TTITLE13=Martina Dry - I Belong To You
TTITLE14=Jock Lee - Sexy Guy
TTITLE15=Pamsy and Ace - 2 Love, 4 Love
TTITLE16=Mickey B. - Snowgame Fighter
TTITLE17=Eurofunk - DJ Is Playing My Song
TTITLE18=CCCD
EXTD=
EXTT0=
EXTT1=
EXTT2=
EXTT3=
EXTT4=
EXTT5=
EXTT6=
EXTT7=
EXTT8=
EXTT9=
EXTT10=
EXTT11=
EXTT12=
EXTT13=
EXTT14=
EXTT15=
EXTT16=
EXTT17=
EXTT18=
PLAYORDER=
